<svg width="11" height="8" viewBox="0 0 11 8" fill="none" xmlns="http://www.w3.org/2000/svg">
<path d="M10.5625 1.13542C10.6875 1.26042 10.75 1.42014 10.75 1.61458C10.75 1.80208 10.6875 1.95833 10.5625 2.08333L4.90625 7.73958C4.77431 7.87153 4.61458 7.9375 4.42708 7.9375C4.24653 7.9375 4.09028 7.87153 3.95833 7.73958L0.1875 3.96875C0.0625 3.84375 0 3.6875 0 3.5C0 3.30556 0.0625 3.14583 0.1875 3.02083C0.1875 3.02083 1.00347 2.21528 1.13542 2.08333C1.26736 1.95139 1.42361 1.88542 1.60417 1.88542C1.78472 1.88542 1.94097 1.95139 2.07292 2.08333L4.42708 4.4375L8.67708 0.197917C8.80903 0.0659721 8.96528 0 9.14583 0C9.32639 0 9.48264 0.0659721 9.61458 0.197917L10.5625 1.13542Z" fill="#FDF0D5"/>
</svg>
