<svg width="16" height="16" viewBox="0 0 16 16" fill="none" xmlns="http://www.w3.org/2000/svg">
<path d="M13.375 6.3125C13.375 6.11806 13.3125 5.95833 13.1875 5.83333L12.2396 4.89583C12.1076 4.76389 11.9514 4.69792 11.7708 4.69792C11.5903 4.69792 11.434 4.76389 11.3021 4.89583L7.05208 9.13542L4.69792 6.78125C4.56597 6.64931 4.40972 6.58333 4.22917 6.58333C4.04861 6.58333 3.89236 6.64931 3.76042 6.78125L2.8125 7.71875C2.6875 7.84375 2.625 8.00347 2.625 8.19792C2.625 8.38542 2.6875 8.54167 2.8125 8.66667L6.58333 12.4375C6.71528 12.5694 6.87153 12.6354 7.05208 12.6354C7.23958 12.6354 7.39931 12.5694 7.53125 12.4375L13.1875 6.78125C13.3125 6.65625 13.375 6.5 13.375 6.3125ZM16 8C16 9.45139 15.6424 10.7899 14.9271 12.0156C14.2118 13.2413 13.2413 14.2118 12.0156 14.9271C10.7899 15.6424 9.45139 16 8 16C6.54861 16 5.21007 15.6424 3.98438 14.9271C2.75868 14.2118 1.78819 13.2413 1.07292 12.0156C0.357639 10.7899 0 9.45139 0 8C0 6.54861 0.357639 5.21007 1.07292 3.98438C1.78819 2.75868 2.75868 1.78819 3.98438 1.07292C5.21007 0.357639 6.54861 0 8 0C9.45139 0 10.7899 0.357639 12.0156 1.07292C13.2413 1.78819 14.2118 2.75868 14.9271 3.98438C15.6424 5.21007 16 6.54861 16 8Z" fill="#FDF0D5"/>
</svg>
